<svg xmlns="http://www.w3.org/2000/svg" viewBox="0 0 64 64" width="64" height="64" fill="#171717" color="#171717" role="img" aria-label="Maritime decarbonisation mark">
  <path d="M32 34 C34 18 42 8 53 3 C54 18 46 31 32 34 Z"></path>
  <path d="M32 34 C29 22 24 15 15 10 C14 22 20 30 32 34 Z" opacity=".5"></path>
  <path d="M7 38 H59 C56 48 50 51 44 51 H21 C14 51 9 45 7 38 Z"></path>
  <path d="M12 58 C18 55 23 61 29 58 C35 55 40 61 46 58" fill="none" stroke="currentColor" stroke-width="3" stroke-linecap="round"></path>
</svg>